<?xml version="1.0" encoding="UTF-8" standalone="no"?>
<!DOCTYPE svg PUBLIC "-//W3C//DTD SVG 1.1//EN" "http://www.w3.org/Graphics/SVG/1.1/DTD/svg11.dtd">
<svg width="100%" height="100%" viewBox="0 0 19 18" version="1.1" xmlns="http://www.w3.org/2000/svg" xmlns:xlink="http://www.w3.org/1999/xlink" xml:space="preserve" xmlns:serif="http://www.serif.com/" style="fill-rule:evenodd;clip-rule:evenodd;stroke-linejoin:round;stroke-miterlimit:2;">
    <g id="path18" transform="matrix(0.0152809,0,0,-0.0152809,-44.3485,75.4199)">
        <path d="M3506.09,4935.55C3172.62,4935.55 2902.21,4665.19 2902.21,4331.67C2902.21,4064.86 3075.24,3838.5 3315.18,3758.65C3345.36,3753.06 3356.44,3771.75 3356.44,3787.7C3356.44,3802.1 3355.88,3849.67 3355.62,3900.13C3187.62,3863.6 3152.17,3971.38 3152.17,3971.38C3124.7,4041.18 3085.12,4059.74 3085.12,4059.74C3030.33,4097.22 3089.25,4096.45 3089.25,4096.45C3149.89,4092.2 3181.82,4034.21 3181.82,4034.21C3235.68,3941.9 3323.09,3968.59 3357.55,3984.02C3362.97,4023.05 3378.62,4049.7 3395.89,4064.77C3261.76,4080.04 3120.76,4131.82 3120.76,4363.21C3120.76,4429.14 3144.35,4483.01 3182.98,4525.3C3176.71,4540.52 3156.04,4601.93 3188.83,4685.11C3188.83,4685.11 3239.54,4701.34 3354.94,4623.21C3403.11,4636.59 3454.77,4643.3 3506.09,4643.53C3557.41,4643.3 3609.11,4636.59 3657.37,4623.21C3772.63,4701.34 3823.27,4685.11 3823.27,4685.11C3856.14,4601.93 3835.46,4540.52 3829.19,4525.3C3867.91,4483.01 3891.34,4429.14 3891.34,4363.21C3891.34,4131.27 3750.07,4080.2 3615.6,4065.25C3637.26,4046.51 3656.56,4009.76 3656.56,3953.42C3656.56,3872.62 3655.86,3807.59 3655.86,3787.7C3655.86,3771.63 3666.73,3752.8 3697.34,3758.73C3937.15,3838.67 4109.96,4064.95 4109.96,4331.67C4109.96,4665.19 3839.59,4935.55 3506.09,4935.55" style="fill:rgb(27,24,23);"/>
    </g>
    <g id="path181" serif:id="path18" transform="matrix(0.0152809,0,0,-0.0152809,-44.3485,75.4199)">
        <path d="M3506.09,4935.55C3172.62,4935.55 2902.21,4665.19 2902.21,4331.67C2902.21,4064.86 3075.24,3838.5 3315.18,3758.65C3345.36,3753.06 3356.44,3771.75 3356.44,3787.7C3356.44,3802.1 3355.88,3849.67 3355.62,3900.13C3187.62,3863.6 3152.17,3971.38 3152.17,3971.38C3124.7,4041.18 3085.12,4059.74 3085.12,4059.74C3030.33,4097.22 3089.25,4096.45 3089.25,4096.45C3149.89,4092.2 3181.82,4034.21 3181.82,4034.21C3235.68,3941.9 3323.09,3968.59 3357.55,3984.02C3362.97,4023.05 3378.62,4049.7 3395.89,4064.77C3261.76,4080.04 3120.76,4131.82 3120.76,4363.21C3120.76,4429.14 3144.35,4483.01 3182.98,4525.3C3176.71,4540.52 3156.04,4601.93 3188.83,4685.11C3188.83,4685.11 3239.54,4701.34 3354.94,4623.21C3403.11,4636.59 3454.77,4643.3 3506.09,4643.53C3557.41,4643.3 3609.11,4636.59 3657.37,4623.21C3772.63,4701.34 3823.27,4685.11 3823.27,4685.11C3856.14,4601.93 3835.46,4540.52 3829.19,4525.3C3867.91,4483.01 3891.34,4429.14 3891.34,4363.21C3891.34,4131.27 3750.07,4080.2 3615.6,4065.25C3637.26,4046.51 3656.56,4009.76 3656.56,3953.42C3656.56,3872.62 3655.86,3807.59 3655.86,3787.7C3655.86,3771.63 3666.73,3752.8 3697.34,3758.73C3937.15,3838.67 4109.96,4064.95 4109.96,4331.67C4109.96,4665.19 3839.59,4935.55 3506.09,4935.55" style="fill:rgb(27,24,23);"/>
    </g>
</svg>
