<?xml version="1.0" encoding="UTF-8" standalone="no"?>
<!DOCTYPE svg PUBLIC "-//W3C//DTD SVG 1.1//EN" "http://www.w3.org/Graphics/SVG/1.1/DTD/svg11.dtd">
<svg width="100%" height="100%" viewBox="0 0 16 16" version="1.1" xmlns="http://www.w3.org/2000/svg" xmlns:xlink="http://www.w3.org/1999/xlink" xml:space="preserve" xmlns:serif="http://www.serif.com/" style="fill-rule:evenodd;clip-rule:evenodd;stroke-linejoin:round;stroke-miterlimit:2;">
    <g transform="matrix(0.34887,0,0,0.445933,-1699.66,-308.317)">
        <g transform="matrix(2.08679,0,0,1.63267,1877.35,129.759)">
            <circle cx="1446" cy="355" r="11" style="fill:rgb(235,235,235);"/>
            <path d="M1446,344C1452.07,344 1457,348.929 1457,355C1457,361.071 1452.07,366 1446,366C1439.93,366 1435,361.071 1435,355C1435,348.929 1439.93,344 1446,344ZM1446,344.174C1451.98,344.174 1456.83,349.025 1456.83,355C1456.83,360.975 1451.98,365.826 1446,365.826C1440.03,365.826 1435.17,360.975 1435.17,355C1435.17,349.025 1440.03,344.174 1446,344.174Z" style="fill:rgb(211,211,211);"/>
        </g>
        <g transform="matrix(6.45102e-17,0.824218,-1.05353,5.04688e-17,5271.41,-480.079)">
            <path d="M1442.5,347L1454,363L1431,363L1442.5,347Z" style="fill:rgb(211,211,211);"/>
        </g>
    </g>
</svg>
