<?xml version="1.0" encoding="UTF-8" standalone="no"?>
<!DOCTYPE svg PUBLIC "-//W3C//DTD SVG 1.1//EN" "http://www.w3.org/Graphics/SVG/1.1/DTD/svg11.dtd">
<svg width="100%" height="100%" viewBox="0 0 21 21" version="1.1" xmlns="http://www.w3.org/2000/svg" xmlns:xlink="http://www.w3.org/1999/xlink" xml:space="preserve" xmlns:serif="http://www.serif.com/" style="fill-rule:evenodd;clip-rule:evenodd;stroke-linejoin:round;stroke-miterlimit:2;">
    <g transform="matrix(0.357578,0,0,0.403866,-309.196,-605.085)">
        <g transform="matrix(6.12323e-17,-0.885386,1,5.42143e-17,860.693,1551.36)">
            <path d="M59,60L49,60C48.451,60 48,59.549 48,59L48,52L41,52C40.451,52 40,51.549 40,51L40,44L33,44C32.734,44.002 32.479,43.897 32.29,43.71L27.67,39.09C25.844,39.695 23.932,40.004 22.008,40.004C12.134,40.004 4.008,31.878 4.008,22.004C4.008,12.129 12.134,4.004 22.008,4.004C31.883,4.004 40.008,12.129 40.008,22.004C40.008,23.933 39.698,25.849 39.09,27.68L59.71,48.29C59.897,48.479 60.002,48.734 60,49L60,59C60,59.549 59.549,60 59,60ZM50,58L58,58L58,49.41L37.23,28.65C36.952,28.373 36.862,27.957 37,27.59C37.665,25.804 38.006,23.912 38.006,22.006C38.006,13.229 30.783,6.006 22.006,6.006C13.229,6.006 6.006,13.229 6.006,22.006C6.006,30.783 13.229,38.006 22.006,38.006C23.912,38.006 25.804,37.665 27.59,37C27.954,36.866 28.365,36.956 28.64,37.23L33.41,42L41,42C41.549,42 42,42.451 42,43L42,50L49,50C49.549,50 50,50.451 50,51L50,58Z" style="fill:rgb(190,190,190);fill-rule:nonzero;"/>
        </g>
        <g transform="matrix(6.12323e-17,-0.885386,1,5.42143e-17,864.408,1548.88)">
            <path d="M19,26C15.16,26 12,22.84 12,19C12,15.16 15.16,12 19,12C22.84,12 26,15.16 26,19C26,22.84 22.84,26 19,26ZM19,14C16.257,14 14,16.257 14,19C14,21.743 16.257,24 19,24C21.743,24 24,21.743 24,19C24,16.257 21.743,14 19,14Z" style="fill:rgb(190,190,190);fill-rule:nonzero;"/>
        </g>
    </g>
</svg>
