<?xml version="1.0" encoding="UTF-8" standalone="no"?>
<!DOCTYPE svg PUBLIC "-//W3C//DTD SVG 1.1//EN" "http://www.w3.org/Graphics/SVG/1.1/DTD/svg11.dtd">
<svg width="100%" height="100%" viewBox="0 0 16 16" version="1.1" xmlns="http://www.w3.org/2000/svg" xmlns:xlink="http://www.w3.org/1999/xlink" xml:space="preserve" xmlns:serif="http://www.serif.com/" style="fill-rule:evenodd;clip-rule:evenodd;stroke-linejoin:round;stroke-miterlimit:2;">
    <g>
        <path d="M8,0C12.415,0 16,3.585 16,8C16,12.415 12.415,16 8,16C3.585,16 0,12.415 0,8C0,3.585 3.585,0 8,0ZM8,1.76C11.444,1.76 14.24,4.556 14.24,8C14.24,11.444 11.444,14.24 8,14.24C4.556,14.24 1.76,11.444 1.76,8C1.76,4.556 4.556,1.76 8,1.76Z" style="fill:white;"/>
        <rect x="7" y="3" width="2" height="7" style="fill:white;"/>
        <g transform="matrix(1,0,0,1,0,-1)">
            <rect x="7" y="12" width="2" height="2" style="fill:white;"/>
        </g>
    </g>
</svg>
